<?xml version="1.0" encoding="utf-8"?>
<!-- Generator: Adobe Illustrator 18.1.1, SVG Export Plug-In . SVG Version: 6.00 Build 0)  -->
<svg version="1.1" id="レイヤー_1" xmlns="http://www.w3.org/2000/svg" xmlns:xlink="http://www.w3.org/1999/xlink" x="0px"
	 y="0px" viewBox="0 0 712.2 130.3" style="enable-background:new 0 0 712.2 130.3;" xml:space="preserve">
<style type="text/css">
	.st0{fill:#DEB67A;}
	.st1{fill:#BD9B68;}
	.st2{fill:#D1AB73;}
	.st3{fill:#EFEFEF;}
	.st4{fill:#FFFFFF;}
</style>
<g>
	<g>
		<path class="st0" d="M354.7,86.2c-1.6,4-4,7.5-7,10.3c-3.1,2.9-6.7,5.1-11.1,6.7c-4.3,1.6-9.1,2.4-14.4,2.4
			c-5.3,0-10.2-0.8-14.4-2.4c-4.3-1.6-7.9-3.8-10.9-6.7c-3-2.9-5.3-6.3-6.9-10.3c-1.6-4-2.4-8.5-2.4-13.4V22.3h19.5v48.9
			c0,2.2,0.3,4.3,0.9,6.3c0.6,2,1.5,3.8,2.6,5.3c1.2,1.6,2.8,2.8,4.7,3.7c1.9,0.9,4.3,1.4,7,1.4c2.8,0,5.1-0.5,7-1.4
			c1.9-0.9,3.5-2.2,4.8-3.7c1.2-1.6,2.1-3.3,2.6-5.3c0.5-2,0.8-4.1,0.8-6.3V22.3h19.6v50.5C357.2,77.7,356.4,82.2,354.7,86.2z"/>
		<path class="st0" d="M438.2,102c-5.3,2.4-11.3,3.6-18.2,3.6c-6.3,0-12.1-1-17.4-3.1c-5.3-2.1-9.9-5-13.8-8.8
			c-3.9-3.8-7-8.3-9.2-13.6c-2.2-5.3-3.3-11.1-3.3-17.4c0-6.5,1.1-12.4,3.4-17.7c2.3-5.3,5.4-9.8,9.3-13.5c4-3.7,8.6-6.6,14-8.5
			c5.3-2,11.1-3,17.3-3c5.7,0,11.4,1,16.9,3c5.5,2,10,5,13.5,8.9l-13.3,13.3c-1.8-2.5-4.2-4.4-7.2-5.6c-3-1.2-6-1.8-9.2-1.8
			c-3.4,0-6.6,0.6-9.5,1.9c-2.9,1.3-5.3,3-7.4,5.2s-3.7,4.8-4.8,7.9c-1.1,3-1.7,6.3-1.7,9.9c0,3.7,0.6,7,1.7,10.1
			c1.1,3.1,2.7,5.7,4.8,7.9c2,2.2,4.5,3.9,7.3,5.1c2.8,1.2,5.9,1.8,9.3,1.8c3.9,0,7.3-0.8,10.2-2.3c2.9-1.5,5.2-3.5,7-6l13.6,12.8
			C447.9,96.3,443.5,99.6,438.2,102z"/>
		<path class="st0" d="M521.3,103.4l-30.1-37.4h-0.2v37.4h-19.1V22.3h19.1v33h0.3l29-33h24.5l-35,37.4l37,43.8H521.3z"/>
		<path class="st0" d="M564.8,103.4V22.3h54.6v16.5h-35.6v15.4h33.7v15.7h-33.7v16.8h37.7v16.7H564.8z"/>
		<path class="st0" d="M689.2,103.4l-17.6-32.2h-6.7v32.2h-19.1V22.3h30.9c3.9,0,7.7,0.4,11.4,1.2s7,2.2,10,4.1
			c2.9,1.9,5.3,4.4,7,7.6c1.8,3.1,2.6,7,2.6,11.7c0,5.5-1.5,10.1-4.5,13.9c-3,3.7-7.1,6.4-12.4,8l21.2,34.7H689.2z M688.4,47.2
			c0-1.9-0.4-3.5-1.2-4.6c-0.8-1.2-1.8-2.1-3.1-2.8c-1.3-0.6-2.7-1.1-4.3-1.3c-1.6-0.2-3.1-0.3-4.5-0.3h-10.5V57h9.3
			c1.6,0,3.3-0.1,5-0.4c1.7-0.3,3.2-0.7,4.6-1.4c1.4-0.7,2.5-1.7,3.4-3S688.4,49.2,688.4,47.2z"/>
	</g>
	<g>
		<polygon class="st1" points="220.7,86.3 220.7,86.3 260.6,37.3 260.6,21.4 197.7,21.4 197.7,38.1 235.8,38.1 196.8,86.3 
			196.8,103.4 220.7,103.4 		"/>
		<polygon class="st1" points="237.9,86.3 220.8,103.4 261.4,103.4 261.4,86.3 		"/>
	</g>
	<g>
		<path class="st1" d="M130.3,89.4V16.5c-0.1-4.5-1.9-8.6-4.9-11.6L96,34.3v6.2l-39.2,48h0v16.8H33.5v-8.5L4.9,125.4
			c3,3,7.2,4.9,11.8,4.9h72.7L130.3,89.4z M73.8,88.5h23v16.8H57L73.8,88.5z"/>
		<path class="st2" d="M4.9,125.4l28.5-28.5v-8.3l38.3-47.2H34.4V25H96v9.3l29.3-29.3c-3-3-7.2-4.9-11.8-4.9H16.8c0,0-0.1,0-0.1,0
			h24.2L0,40.9v72.8C0,118.2,1.9,122.4,4.9,125.4z"/>
		<rect x="101.5" y="118.3" class="st3" width="0" height="24.1"/>
		<path class="st3" d="M89.4,130.3h24.1c9.1,0,16.6-7.4,16.8-16.5V89.4L89.4,130.3z"/>
		<path class="st1" d="M0,16.6v24.2L40.8,0H16.6C7.5,0.1,0.1,7.5,0,16.6z"/>
		<polygon class="st4" points="33.5,105.3 56.9,105.3 56.9,88.5 56.8,88.5 96,40.5 96,34.3 33.5,96.8 		"/>
		<polygon class="st4" points="34.4,25 34.4,41.3 71.7,41.3 33.5,88.5 33.5,96.8 96,34.3 96,25 		"/>
		<polygon class="st4" points="96.8,88.5 73.8,88.5 57,105.3 96.8,105.3 		"/>
	</g>
</g>
</svg>
