<?xml version="1.0" encoding="utf-8"?>
<!-- Generator: Adobe Illustrator 18.1.1, SVG Export Plug-In . SVG Version: 6.00 Build 0)  -->
<svg version="1.1" id="レイヤー_1" xmlns="http://www.w3.org/2000/svg" xmlns:xlink="http://www.w3.org/1999/xlink" x="0px"
	 y="0px" viewBox="0 0 657.2 134.3" style="enable-background:new 0 0 657.2 134.3;" xml:space="preserve">
<style type="text/css">
	.st0{fill:#FFFFFF;}
</style>
<g>
	<polygon class="st0" points="229.7,60.5 214.3,75.9 250.8,75.9 250.8,60.5 	"/>
	<g>
		<g>
			<g>
				<path class="st0" d="M334.3,60.4c-1.5,3.6-3.6,6.7-6.3,9.2c-2.7,2.6-6,4.6-9.9,6c-3.9,1.4-8.2,2.2-12.9,2.2
					c-4.8,0-9.1-0.7-12.9-2.2c-3.8-1.4-7.1-3.4-9.8-6c-2.7-2.6-4.7-5.6-6.2-9.2c-1.4-3.6-2.2-7.6-2.2-12V3.2h17.5v43.8
					c0,2,0.3,3.9,0.8,5.6c0.5,1.8,1.3,3.4,2.4,4.8c1.1,1.4,2.5,2.5,4.2,3.3c1.7,0.8,3.8,1.2,6.3,1.2c2.5,0,4.6-0.4,6.3-1.2
					c1.7-0.8,3.2-1.9,4.3-3.3c1.1-1.4,1.9-3,2.4-4.8c0.5-1.8,0.7-3.7,0.7-5.6V3.2h17.6v45.3C336.5,52.9,335.8,56.9,334.3,60.4z"/>
				<path class="st0" d="M409.1,74.6c-4.7,2.2-10.2,3.2-16.3,3.2c-5.6,0-10.8-0.9-15.6-2.8c-4.8-1.8-8.9-4.5-12.4-7.9
					c-3.5-3.4-6.2-7.4-8.2-12.2c-2-4.7-3-9.9-3-15.6c0-5.8,1-11.1,3-15.8s4.8-8.7,8.4-12.1c3.6-3.3,7.7-5.9,12.5-7.6
					c4.8-1.8,10-2.7,15.5-2.7c5.1,0,10.2,0.9,15.1,2.7c5,1.8,9,4.5,12.1,8l-11.9,11.9c-1.6-2.3-3.8-3.9-6.5-5
					c-2.7-1.1-5.4-1.6-8.2-1.6c-3.1,0-5.9,0.6-8.5,1.7c-2.6,1.1-4.8,2.7-6.6,4.7c-1.8,2-3.3,4.3-4.3,7c-1,2.7-1.5,5.7-1.5,8.9
					c0,3.3,0.5,6.3,1.5,9c1,2.7,2.4,5.1,4.3,7c1.8,2,4,3.5,6.5,4.6c2.5,1.1,5.3,1.6,8.3,1.6c3.5,0,6.5-0.7,9.1-2.1
					c2.6-1.4,4.7-3.1,6.3-5.3L421,65.8C417.8,69.5,413.8,72.5,409.1,74.6z"/>
				<path class="st0" d="M483.5,75.9l-27-33.5h-0.2v33.5h-17.1V3.2h17.1v29.6h0.3l26-29.6h22l-31.3,33.5l33.2,39.2H483.5z"/>
				<path class="st0" d="M522.4,75.9V3.2h48.9V18h-31.9v13.8h30.2v14.1h-30.2v15.1h33.8v15H522.4z"/>
				<path class="st0" d="M633.9,75.9l-15.8-28.8h-6v28.8H595V3.2h27.7c3.5,0,6.9,0.4,10.2,1.1c3.3,0.7,6.3,1.9,8.9,3.6
					c2.6,1.7,4.7,4,6.3,6.8c1.6,2.8,2.4,6.3,2.4,10.5c0,4.9-1.3,9.1-4,12.4c-2.7,3.4-6.4,5.7-11.1,7.2l19,31.1H633.9z M633.2,25.5
					c0-1.7-0.4-3.1-1.1-4.2c-0.7-1.1-1.7-1.9-2.8-2.5c-1.1-0.6-2.4-1-3.8-1.2c-1.4-0.2-2.8-0.3-4.1-0.3H612v16.9h8.4
					c1.4,0,2.9-0.1,4.4-0.4c1.5-0.2,2.9-0.7,4.1-1.3c1.2-0.6,2.3-1.5,3-2.7C632.8,28.8,633.2,27.3,633.2,25.5z"/>
			</g>
			<g>
				<path class="st0" d="M189.5,107h6.8v2.6h-3.2v22.1h3.2v2.6h-6.8V107z"/>
				<path class="st0" d="M292.3,112.9c1.6,0,2.4-0.1,3.4-0.2v4.4c-0.8-0.1-1.7-0.1-3.3-0.1h-1.5v0.9c0,6.6-1.7,11-8.6,14l-3.6-3.4
					c5.6-1.8,7.8-4.2,7.8-10.5v-1h-5.8v3.4c0,1.4,0.1,2.4,0.1,3.1H276c0.1-0.7,0.2-1.8,0.2-3.1V117h-2c-1.5,0-2.3,0.1-3.1,0.1v-4.6
					c0.6,0.1,1.6,0.3,3.1,0.3h2v-2.3c0-1.1-0.1-2.1-0.2-2.8h4.8c-0.1,0.7-0.2,1.6-0.2,2.8v2.3h5.8v-2.6c0-1.1-0.1-2.1-0.2-2.7h4.8
					l-0.1,0.8l2.1-0.7c0.5,1.1,1.1,2.7,1.4,3.7l-2.2,0.7c-0.4-1.2-0.7-2.6-1.3-3.7c-0.1,0.5-0.1,1.1-0.1,1.8v2.6H292.3z
					 M295.2,111.2c-0.4-1.2-0.9-2.6-1.4-3.7l2.2-0.7c0.5,1.1,1.1,2.7,1.4,3.7L295.2,111.2z"/>
				<path class="st0" d="M373.5,120.6l-4.1,1.5c-0.5-1.5-1.8-5.1-2.6-6.5l4.1-1.4C371.7,115.8,373,119,373.5,120.6z M387.7,115
					c-0.4,1.1-0.6,1.7-0.8,2.4c-0.7,2.7-1.9,5.5-3.7,7.9c-2.6,3.4-6.1,5.8-9.4,7.1l-3.5-3.6c2.9-0.7,7-2.9,9.3-5.8
					c1.8-2.3,3.1-6.1,3.4-9.5L387.7,115z M379.7,118.9l-4,1.4c-0.4-1.4-1.6-4.7-2.3-6.2l4-1.3C377.9,114,379.3,117.6,379.7,118.9z"
					/>
				<path class="st0" d="M480.4,113.1c-0.1,0.4-0.2,1.2-0.2,1.5c-0.1,3.2-0.5,10.8-1.6,13.7c-0.6,1.5-1.8,2.4-3.9,2.4
					c-1.7,0-3.4-0.1-4.7-0.2l-0.5-4.5c1.3,0.3,2.7,0.4,3.8,0.4c0.9,0,1.2-0.3,1.5-1c0.7-1.5,1.1-6.4,1.1-9.4h-5.4
					c-1,7-3.5,11.4-8.7,15.1l-3.9-3.2c1.3-0.7,2.8-1.7,4.1-3.1c2.4-2.5,3.6-5.4,4.1-8.9h-3.1c-0.9,0-2.6,0-3.9,0.1v-4.4
					c1.3,0.1,2.9,0.2,3.9,0.2h3.5c0-0.7,0-1.4,0-2.2c0-0.6-0.1-2-0.2-2.7h4.9c-0.1,0.7-0.2,1.9-0.2,2.6c0,0.8-0.1,1.6-0.1,2.3h4.4
					c0.7,0,1.5-0.1,2.3-0.2L480.4,113.1z"/>
				<path class="st0" d="M551.3,116.2c1.1,0.1,3.4,0.2,4.8,0.2h14.7c1.2,0,2.6-0.1,3.4-0.2v5.3c-0.7,0-2.3-0.2-3.4-0.2h-14.7
					c-1.6,0-3.7,0.1-4.8,0.2V116.2z"/>
				<path class="st0" d="M650.4,131.7h3.2v-22.1h-3.2V107h6.8v27.3h-6.8V131.7z"/>
			</g>
		</g>
		<polygon class="st0" points="250,16.6 250,2.4 193.7,2.4 193.7,17.4 227.8,17.4 192.8,60.5 192.8,75.9 214.2,75.9 214.2,60.5 
			214.2,60.5 		"/>
	</g>
</g>
<path class="st0" d="M125.3,4.9c-3-3-7.2-4.9-11.8-4.9H16.8c0,0-0.1,0-0.1,0C7.5,0.1,0.1,7.5,0,16.6v24.2v72.8
	c0,4.6,1.9,8.7,4.9,11.7c3,3,7.2,4.9,11.8,4.9h72.6l0,0h24.1l0,0c9.1,0,16.6-7.4,16.7-16.5V89.4V16.5C130.2,12,128.3,7.9,125.3,4.9z
	 M56.8,105.3H33.4v-8.5v-8.3l38.2-47.2H34.4V24.9H96v9.3v6.2l-39.2,48h0V105.3z M56.9,105.3l16.8-16.8h23v16.8H56.9z"/>
</svg>
