<?xml version="1.0" encoding="utf-8"?>
<!-- Generator: Adobe Illustrator 18.1.1, SVG Export Plug-In . SVG Version: 6.00 Build 0)  -->
<svg version="1.1" id="レイヤー_1" xmlns="http://www.w3.org/2000/svg" xmlns:xlink="http://www.w3.org/1999/xlink" x="0px"
	 y="0px" viewBox="0 0 712.2 130.3" style="enable-background:new 0 0 712.2 130.3;" xml:space="preserve">
<style type="text/css">
	.st0{fill:#FFFFFF;}
</style>
<g>
	<path class="st0" d="M337.6,71.2c0,2.2-0.3,4.3-0.8,6.3c-0.5,2-1.4,3.8-2.6,5.3c-1.2,1.6-2.8,2.8-4.8,3.7c-1.9,0.9-4.3,1.4-7,1.4
		s-5.1-0.5-7-1.4c-1.9-0.9-3.5-2.2-4.7-3.7c-1.2-1.6-2.1-3.3-2.6-5.3c-0.6-2-0.9-4.1-0.9-6.3V22.3h-19.5v50.5
		c0,4.9,0.8,9.3,2.4,13.4c1.6,4,3.9,7.5,6.9,10.3c3,2.9,6.6,5.1,10.9,6.7c4.3,1.6,9.1,2.4,14.4,2.4c5.3,0,10.1-0.8,14.4-2.4
		c4.3-1.6,8-3.8,11.1-6.7c3.1-2.9,5.4-6.3,7-10.3c1.6-4,2.5-8.5,2.5-13.4V22.3h-19.6V71.2z"/>
	<path class="st0" d="M430.9,85.3c-2.9,1.5-6.3,2.3-10.2,2.3c-3.4,0-6.5-0.6-9.3-1.8c-2.8-1.2-5.3-2.9-7.3-5.1
		c-2-2.2-3.6-4.8-4.8-7.9c-1.1-3.1-1.7-6.4-1.7-10.1c0-3.6,0.6-6.9,1.7-9.9c1.1-3,2.8-5.6,4.8-7.9s4.5-4,7.4-5.2
		c2.9-1.3,6-1.9,9.5-1.9c3.1,0,6.2,0.6,9.2,1.8c3,1.2,5.4,3.1,7.2,5.6L450.7,32c-3.4-3.9-7.9-6.9-13.5-8.9c-5.5-2-11.2-3-16.9-3
		c-6.2,0-12,1-17.3,3c-5.3,2-10,4.8-14,8.5c-4,3.7-7.1,8.2-9.3,13.5c-2.3,5.3-3.4,11.2-3.4,17.7c0,6.3,1.1,12.2,3.3,17.4
		c2.2,5.3,5.3,9.8,9.2,13.6c3.9,3.8,8.5,6.7,13.8,8.8c5.3,2.1,11.1,3.1,17.4,3.1c6.9,0,13-1.2,18.2-3.6c5.3-2.4,9.7-5.7,13.3-9.8
		l-13.6-12.8C436.1,81.8,433.8,83.8,430.9,85.3z"/>
	<polygon class="st0" points="544.8,22.3 520.3,22.3 491.3,55.3 490.9,55.3 490.9,22.3 471.8,22.3 471.8,103.4 490.9,103.4 
		490.9,66.1 491.2,66.1 521.3,103.4 546.9,103.4 509.9,59.7 	"/>
	<polygon class="st0" points="583.7,69.9 617.4,69.9 617.4,54.2 583.7,54.2 583.7,38.8 619.3,38.8 619.3,22.3 564.8,22.3 
		564.8,103.4 621.4,103.4 621.4,86.7 583.7,86.7 	"/>
	<path class="st0" d="M691,68.7c5.3-1.6,9.4-4.3,12.4-8c3-3.7,4.5-8.4,4.5-13.9c0-4.7-0.9-8.6-2.6-11.7c-1.8-3.1-4.1-5.7-7-7.6
		c-2.9-1.9-6.3-3.3-10-4.1s-7.5-1.2-11.4-1.2h-30.9v81.2h19.1V71.2h6.7l17.6,32.2h22.9L691,68.7z M687.1,52.2c-0.9,1.3-2,2.3-3.4,3
		c-1.4,0.7-2.9,1.2-4.6,1.4c-1.7,0.3-3.3,0.4-5,0.4h-9.3V38.1h10.5c1.5,0,3,0.1,4.5,0.3s3,0.7,4.3,1.3c1.3,0.7,2.3,1.6,3.1,2.8
		c0.8,1.2,1.2,2.7,1.2,4.6C688.4,49.2,688,50.9,687.1,52.2z"/>
	<polygon class="st0" points="260.6,37.3 260.6,21.4 197.7,21.4 197.7,38.1 235.8,38.1 196.8,86.3 196.8,103.4 220.7,103.4 
		220.7,86.3 220.7,86.3 	"/>
	<polygon class="st0" points="220.8,103.4 261.4,103.4 261.4,86.3 237.9,86.3 	"/>
	<path class="st0" d="M113.5,0H16.8c0,0-0.1,0-0.1,0C7.5,0.1,0.1,7.5,0,16.6v24.2v72.8c0,4.6,1.9,8.7,4.9,11.7c3,3,7.2,4.9,11.8,4.9
		h72.7l0,0h24.1l0,0c9.1,0,16.6-7.4,16.8-16.5V89.4V16.5c-0.1-4.5-1.9-8.6-4.9-11.6C122.3,1.9,118.1,0,113.5,0z M56.9,105.3H33.5
		v-8.5v-8.3l38.3-47.2H34.4V25H96v9.3v6.2l-39.2,48h0V105.3z M57,105.3l16.8-16.8h23v16.8H57z"/>
</g>
</svg>
