<?xml version="1.0" encoding="utf-8"?>
<!-- Generator: Adobe Illustrator 18.1.1, SVG Export Plug-In . SVG Version: 6.00 Build 0)  -->
<svg version="1.1" id="レイヤー_1" xmlns="http://www.w3.org/2000/svg" xmlns:xlink="http://www.w3.org/1999/xlink" x="0px"
	 y="0px" viewBox="0 1139.3 1200 721.4" style="enable-background:new 0 1139.3 1200 721.4;" xml:space="preserve">
<style type="text/css">
	.st0{fill:none;}
	.st1{opacity:0.1;fill:#DDDDDD;enable-background:new    ;}
	.st2{opacity:0.2;fill:#DDDDDD;enable-background:new    ;}
</style>
<g>
	<rect y="1139.3" class="st0" width="1200" height="721.4"/>
	<g>
		<polygon class="st1" points="0,1500 300,1139.3 300,1500 		"/>
		<polygon class="st1" points="600,1139.3 300,1500 300,1139.3 		"/>
		<polygon class="st1" points="0,1860.7 300,1500 300,1860.7 		"/>
		<polygon class="st2" points="300,1139.3 0,1500 0,1139.3 		"/>
		<polygon class="st2" points="600,1500 300,1860.7 300,1500 		"/>
		<polygon class="st2" points="900,1139.3 600,1500 600,1139.3 		"/>
		<polygon class="st1" points="600,1500 900,1139.3 900,1500 		"/>
		<polygon class="st1" points="600,1860.7 900,1500 900,1860.7 		"/>
		<polygon class="st2" points="1200,1500 900,1860.7 900,1500 		"/>
		<polygon class="st1" points="900,1500 1200,1139.3 1200,1500 		"/>
		<polygon class="st1" points="900,1860.7 1200,1500 1200,1860.7 		"/>
	</g>
</g>
</svg>
