<?xml version="1.0" encoding="utf-8"?>
<!-- Generator: Adobe Illustrator 18.1.1, SVG Export Plug-In . SVG Version: 6.00 Build 0)  -->
<svg version="1.1" id="レイヤー_1" xmlns="http://www.w3.org/2000/svg" xmlns:xlink="http://www.w3.org/1999/xlink" x="0px"
	 y="0px" viewBox="0 0 199.6 120" enable-background="new 0 0 199.6 120" xml:space="preserve">
<g opacity="0.12">
	<polygon opacity="0.1" fill="#FFFFFF" points="0,60 49.9,0 49.9,60 	"/>
	<polygon opacity="0.1" fill="#FFFFFF" points="99.8,0 49.9,60 49.9,0 	"/>
	<polygon opacity="0.1" fill="#FFFFFF" points="0,120 49.9,60 49.9,120 	"/>
	<polygon opacity="0.25" fill="#FFFFFF" points="99.8,60 49.9,120 49.9,60 	"/>
	<polygon opacity="0.25" fill="#FFFFFF" points="49.9,0 0,60 0,0 	"/>
	<polygon opacity="0.25" fill="#FFFFFF" points="149.7,0 99.8,60 99.8,0 	"/>
	<polygon opacity="0.1" fill="#FFFFFF" points="99.8,60 149.7,0 149.7,60 	"/>
	<polygon opacity="0.1" fill="#FFFFFF" points="99.8,120 149.7,60 149.7,120 	"/>
	<polygon opacity="0.25" fill="#FFFFFF" points="199.6,60 149.7,120 149.7,60 	"/>
	<polygon opacity="0.1" fill="#FFFFFF" points="149.7,60 199.6,0 199.6,60 	"/>
	<polygon opacity="0.1" fill="#FFFFFF" points="149.7,120 199.6,60 199.6,120 	"/>
</g>
</svg>
