<?xml version="1.0" encoding="utf-8"?>
<!-- Generator: Adobe Illustrator 18.1.1, SVG Export Plug-In . SVG Version: 6.00 Build 0)  -->
<svg version="1.1" id="レイヤー_1" xmlns="http://www.w3.org/2000/svg" xmlns:xlink="http://www.w3.org/1999/xlink" x="0px"
	 y="0px" viewBox="0 100 500 300" enable-background="new 0 100 500 300" xml:space="preserve">
<g>
	<rect y="100" fill="#DEB67A" width="500" height="300"/>
	<g>
		<polygon fill="#D1AB73" points="0.5,250 125.2,100 125.2,250 		"/>
		<polygon fill="#D1AB73" points="250,100 125.2,250 125.2,100 		"/>
		<polygon fill="#D1AB73" points="0.5,400 125.2,250 125.2,400 		"/>
		<polygon fill="#D1AB73" points="250,250 125.2,400 125.2,250 		"/>
		<polygon fill="#BD9B68" points="125.2,100 0.5,250 0.5,100 		"/>
		<polygon fill="#BD9B68" points="250,250 125.2,400 125.2,250 		"/>
		<polygon fill="#BD9B68" points="374.8,100 250,250 250,100 		"/>
		<polygon fill="#BD9B68" points="250,250 374.8,100 374.8,250 		"/>
		<polygon fill="#D1AB73" points="250,400 374.8,250 374.8,400 		"/>
		<polygon fill="#BD9B68" points="499.5,250 374.8,400 374.8,250 		"/>
		<polygon fill="#D1AB73" points="374.8,250 499.5,100 499.5,250 		"/>
		<polygon fill="#D1AB73" points="374.8,400 499.5,250 499.5,400 		"/>
	</g>
</g>
</svg>
