<?xml version="1.0" encoding="utf-8"?>
<!-- Generator: Adobe Illustrator 18.1.1, SVG Export Plug-In . SVG Version: 6.00 Build 0)  -->
<svg version="1.1" id="レイヤー_1" xmlns="http://www.w3.org/2000/svg" xmlns:xlink="http://www.w3.org/1999/xlink" x="0px"
	 y="0px" viewBox="0 0 181.9 187.5" style="enable-background:new 0 0 181.9 187.5;" xml:space="preserve">
<style type="text/css">
	.st0{fill:#DDDDDD;}
	.st1{fill:#C6C6C6;}
	.st2{fill:#DEB67A;}
</style>
<g>
	<path class="st0" d="M97.5,187.5c-1.4,0-2.7-0.4-3.8-1.1l-78.5-53.5c-1.4-0.9-2.2-2.4-2.2-3.9c0-1.5,0.8-2.9,2.2-3.9l78.5-53.5
		c2.1-1.4,5.4-1.4,7.5,0l78.5,53.5c1.4,0.9,2.2,2.4,2.2,3.9c0,1.5-0.8,2.9-2.2,3.9l-78.5,53.5C100.2,187.1,98.9,187.5,97.5,187.5z
		 M20.2,129l76.9,52.5c0,0,0.2,0.1,0.4,0.1c0.2,0,0.4-0.1,0.4-0.1l76.9-52.4L97.9,76.5c0,0-0.2-0.1-0.4-0.1s-0.4,0.1-0.4,0.1
		L20.2,129z"/>
	<path class="st1" d="M97.5,158.3c-1.4,0-2.7-0.4-3.8-1.1l-78.5-53.5c-1.4-0.9-2.2-2.4-2.2-3.9c0-1.5,0.8-2.9,2.2-3.9l78.5-53.5
		c2.1-1.4,5.4-1.4,7.5,0l78.5,53.5c1.4,0.9,2.2,2.4,2.2,3.9c0,1.5-0.8,2.9-2.2,3.9l-78.5,53.5C100.2,157.9,98.9,158.3,97.5,158.3z
		 M20.2,99.7l76.9,52.5c0,0,0.2,0.1,0.4,0.1c0.2,0,0.4-0.1,0.4-0.1l76.9-52.4L97.9,47.3c0,0-0.2-0.1-0.4-0.1s-0.4,0.1-0.4,0.1
		L20.2,99.7z"/>
	<path class="st2" d="M97.5,129c-1.4,0-2.7-0.4-3.8-1.1L15.2,74.4c-1.4-0.9-2.2-2.4-2.2-3.9c0-1.5,0.8-2.9,2.2-3.9l78.5-53.5
		c2.1-1.4,5.4-1.4,7.5,0l78.5,53.5c1.4,0.9,2.2,2.4,2.2,3.9s-0.8,2.9-2.2,3.9l-78.5,53.5C100.2,128.6,98.9,129,97.5,129z M20.2,70.5
		L97.1,123c0,0,0.2,0.1,0.4,0.1c0.2,0,0.4-0.1,0.4-0.1l76.9-52.4L97.9,18.1c0,0-0.2-0.1-0.4-0.1s-0.4,0.1-0.4,0.1L20.2,70.5z"/>
</g>
<g>
	<path class="st2" d="M4.4,64.1L4.8,57l-3.9,2.7l-0.9-1l5.6-3.9l0.8,1L5.9,63l4.2-2.9l0.9,1l-5.8,4L4.4,64.1z"/>
	<path class="st2" d="M7.2,53.7l1.4-0.9l3.1,3.7c0.5,0.6,1,0.9,1.5,1c0.5,0.1,1-0.1,1.5-0.4c0.4-0.3,0.7-0.6,0.8-0.9
		c0.1-0.3,0.2-0.7,0.2-1c0-0.3-0.1-0.7-0.3-1c-0.2-0.3-0.4-0.7-0.7-1l-2.5-3l1.4-0.9l4.8,5.7c0,0,0.1,0.1,0.2,0.3
		c0.1,0.1,0.2,0.3,0.3,0.4l-1.3,0.9l-0.8-0.9c0,0.2,0,0.4,0,0.6c0,0.2-0.1,0.4-0.2,0.7c-0.1,0.2-0.3,0.5-0.4,0.7
		c-0.2,0.2-0.5,0.5-0.8,0.7c-0.9,0.6-1.8,0.9-2.6,0.7c-0.8-0.2-1.6-0.7-2.3-1.5L7.2,53.7z"/>
	<path class="st2" d="M26.2,49.2c0,0.5-0.2,1.1-0.5,1.6s-0.8,1-1.4,1.4c-0.6,0.4-1.2,0.7-1.8,0.8c-0.6,0.1-1.2,0.2-1.8,0.1
		c-0.6-0.1-1.1-0.3-1.6-0.6c-0.5-0.3-1-0.7-1.4-1.2c-0.4-0.5-0.7-1-0.8-1.5c-0.2-0.5-0.2-1.1-0.1-1.6c0.1-0.5,0.3-1,0.6-1.5
		c0.3-0.5,0.7-0.9,1.3-1.3c0.6-0.4,1.2-0.7,1.8-0.8c0.6-0.1,1.2-0.1,1.8,0L22.1,46c-0.4-0.1-0.8-0.1-1.2,0c-0.4,0.1-0.8,0.3-1.3,0.5
		c-0.4,0.3-0.6,0.5-0.8,0.9s-0.3,0.7-0.3,1c0,0.4,0,0.7,0.2,1.1c0.1,0.4,0.3,0.7,0.6,1c0.2,0.3,0.5,0.5,0.9,0.7
		c0.3,0.2,0.7,0.3,1.1,0.4c0.4,0.1,0.8,0.1,1.2,0c0.4-0.1,0.8-0.2,1.1-0.5c0.4-0.3,0.7-0.6,0.9-1c0.2-0.4,0.3-0.7,0.3-1.1L26.2,49.2
		z"/>
	<path class="st2" d="M20.7,40l1.4-0.9l4.5,5.4l0.8-4.7l1.6-1.1l-0.7,4.2l6.4,1.9L33,45.9l-5.1-1.5l-0.3,1.5l1.9,2.3l-1.4,0.9
		L20.7,40z"/>
	<path class="st2" d="M41.4,38.6c0,0.1,0,0.3-0.1,0.6c-0.1,0.2-0.2,0.5-0.3,0.8c-0.2,0.3-0.4,0.6-0.7,0.9c-0.3,0.3-0.6,0.6-1.1,1
		c-0.5,0.4-1.1,0.6-1.7,0.8c-0.6,0.2-1.2,0.2-1.8,0.1c-0.6-0.1-1.1-0.3-1.7-0.6c-0.5-0.3-1-0.7-1.4-1.2c-0.4-0.5-0.7-1-0.8-1.5
		c-0.2-0.5-0.2-1-0.1-1.6c0.1-0.5,0.2-1,0.5-1.5c0.3-0.5,0.7-0.9,1.2-1.2c0.6-0.4,1.2-0.7,1.8-0.8c0.6-0.1,1.2-0.1,1.8,0.1
		c0.6,0.2,1.1,0.4,1.6,0.8c0.5,0.4,1,0.8,1.4,1.3l-5.6,3.9c0.2,0.3,0.5,0.5,0.9,0.6c0.3,0.1,0.7,0.2,1,0.3c0.4,0,0.7,0,1.1-0.1
		c0.4-0.1,0.7-0.2,1-0.4c0.6-0.4,1-0.8,1.2-1.3c0.2-0.4,0.4-0.8,0.4-1.1L41.4,38.6z M37.8,36.7c-0.5-0.5-1-0.8-1.6-0.9
		c-0.6-0.1-1.3,0.1-1.9,0.5c-0.3,0.2-0.6,0.5-0.7,0.8c-0.2,0.3-0.3,0.6-0.3,0.9s0,0.6,0,0.9c0.1,0.3,0.2,0.5,0.4,0.8L37.8,36.7z"/>
	<path class="st2" d="M43.9,38.4l-4.8-5.7c-0.1-0.1-0.1-0.1-0.2-0.2c-0.1-0.1-0.2-0.2-0.3-0.4l1.3-0.9l0.9,1c0-0.2,0-0.4,0-0.6
		c0-0.2,0.1-0.5,0.2-0.7c0.1-0.2,0.2-0.5,0.4-0.7c0.2-0.2,0.4-0.5,0.8-0.7c0.2-0.1,0.3-0.2,0.4-0.3c0.1-0.1,0.3-0.1,0.4-0.2l0.7,1.4
		c-0.2,0.1-0.5,0.2-0.8,0.4c-0.3,0.2-0.5,0.4-0.7,0.7c-0.2,0.3-0.3,0.6-0.3,0.9c0,0.3,0,0.6,0.1,0.9c0.1,0.3,0.2,0.6,0.5,0.9
		l2.8,3.4L43.9,38.4z"/>
	<path class="st2" d="M45.9,30l4.5-3.1l1,1.2l-4.5,3.1L45.9,30z"/>
	<path class="st2" d="M61.5,24.8c0,0.5-0.2,1.1-0.5,1.6s-0.8,1-1.4,1.4c-0.6,0.4-1.2,0.7-1.8,0.8c-0.6,0.1-1.2,0.2-1.8,0.1
		c-0.6-0.1-1.1-0.3-1.6-0.6c-0.5-0.3-1-0.7-1.4-1.2c-0.4-0.5-0.7-1-0.8-1.5c-0.2-0.5-0.2-1.1-0.1-1.6c0.1-0.5,0.3-1,0.6-1.5
		c0.3-0.5,0.7-0.9,1.3-1.3c0.6-0.4,1.2-0.7,1.8-0.8c0.6-0.1,1.2-0.1,1.8,0l-0.2,1.4c-0.4-0.1-0.8-0.1-1.2,0
		c-0.4,0.1-0.8,0.3-1.3,0.5c-0.4,0.3-0.6,0.5-0.8,0.9c-0.2,0.3-0.3,0.7-0.3,1c0,0.4,0,0.7,0.2,1.1c0.1,0.4,0.3,0.7,0.6,1
		c0.2,0.3,0.5,0.5,0.9,0.7c0.3,0.2,0.7,0.3,1.1,0.4c0.4,0.1,0.8,0.1,1.2,0c0.4-0.1,0.8-0.2,1.1-0.5c0.4-0.3,0.7-0.6,0.9-1
		c0.2-0.4,0.3-0.7,0.3-1.1L61.5,24.8z"/>
	<path class="st2" d="M67.1,22.6c-0.5,0.4-1.1,0.6-1.7,0.8c-0.6,0.1-1.2,0.2-1.8,0.1c-0.6-0.1-1.1-0.3-1.7-0.5
		c-0.5-0.3-1-0.6-1.4-1.1c-0.4-0.5-0.7-1-0.8-1.5c-0.2-0.5-0.2-1.1-0.1-1.6c0.1-0.5,0.3-1.1,0.6-1.5c0.3-0.5,0.7-0.9,1.3-1.3
		c0.5-0.4,1.1-0.6,1.7-0.8c0.6-0.1,1.2-0.2,1.8-0.1c0.6,0.1,1.2,0.3,1.7,0.5c0.5,0.3,1,0.6,1.4,1.1c0.4,0.5,0.7,1,0.8,1.5
		c0.2,0.5,0.2,1.1,0.1,1.6c-0.1,0.5-0.3,1.1-0.6,1.6C68.1,21.8,67.6,22.2,67.1,22.6z M66.2,21.6c0.4-0.3,0.6-0.5,0.8-0.9
		c0.2-0.3,0.3-0.7,0.3-1c0-0.4,0-0.7-0.2-1.1c-0.1-0.4-0.3-0.7-0.6-1c-0.2-0.3-0.5-0.5-0.9-0.7c-0.3-0.2-0.7-0.3-1.1-0.4
		c-0.4-0.1-0.8-0.1-1.2,0c-0.4,0.1-0.8,0.2-1.1,0.5c-0.4,0.3-0.6,0.5-0.8,0.9c-0.2,0.3-0.3,0.7-0.3,1c0,0.4,0,0.7,0.2,1.1
		s0.3,0.7,0.6,1c0.2,0.3,0.5,0.5,0.9,0.7c0.3,0.2,0.7,0.3,1.1,0.4c0.4,0.1,0.8,0.1,1.2,0C65.5,22,65.9,21.8,66.2,21.6z"/>
	<path class="st2" d="M72.2,18.8l-4.8-5.7c-0.1-0.1-0.1-0.2-0.2-0.3c-0.1-0.1-0.2-0.2-0.4-0.4l1.3-0.9l0.8,0.9c0-0.2,0-0.4,0-0.6
		c0-0.2,0.1-0.5,0.2-0.7c0.1-0.2,0.2-0.5,0.4-0.7c0.2-0.2,0.4-0.5,0.8-0.7C71,9.4,71.5,9.2,72,9.1c0.5-0.1,1,0,1.6,0.3
		c0-0.5,0.2-1,0.4-1.5s0.6-1,1.2-1.4c0.9-0.6,1.8-0.9,2.6-0.7s1.6,0.7,2.3,1.5l3.2,3.8l-1.4,0.9l-3.1-3.7c-0.5-0.6-1-0.9-1.5-1
		c-0.5-0.1-1,0-1.5,0.4c-0.3,0.2-0.5,0.4-0.7,0.7C75.1,8.6,75,8.9,75,9.2c0,0.3,0,0.6,0.1,0.9c0.1,0.3,0.3,0.6,0.5,0.8l2.9,3.5
		l-1.4,0.9L74,11.7c-0.5-0.6-1-0.9-1.5-1c-0.5-0.1-1,0-1.5,0.4c-0.4,0.3-0.6,0.5-0.8,0.9c-0.1,0.3-0.2,0.7-0.1,1
		c0,0.3,0.1,0.7,0.3,1c0.2,0.3,0.4,0.7,0.7,1l2.5,3L72.2,18.8z"/>
	<path class="st2" d="M87.4,12.6l-7-8.4c-0.1-0.1-0.1-0.2-0.2-0.3c-0.1-0.1-0.2-0.2-0.4-0.4l1.3-0.9l0.8,0.9c0-0.1,0-0.3,0.1-0.5
		c0-0.2,0.1-0.4,0.2-0.7c0.1-0.2,0.3-0.5,0.5-0.8c0.2-0.3,0.5-0.5,0.8-0.7c0.5-0.4,1.1-0.6,1.6-0.7C85.7,0,86.2,0,86.7,0.1
		c0.5,0.1,1,0.3,1.5,0.7c0.5,0.3,0.9,0.7,1.2,1.1c0.5,0.6,0.8,1.1,0.9,1.7c0.1,0.6,0.1,1.1,0,1.6s-0.3,1-0.7,1.4
		c-0.3,0.4-0.7,0.8-1.1,1.1c-0.5,0.3-0.9,0.5-1.3,0.7c-0.4,0.1-0.7,0.2-1,0.3l2.5,3L87.4,12.6z M85.4,7.5c0.3,0,0.6,0,1-0.1
		c0.4-0.1,0.8-0.3,1.3-0.6c0.3-0.2,0.6-0.5,0.8-0.8c0.2-0.3,0.3-0.6,0.3-1c0-0.3,0-0.7-0.1-1c-0.1-0.4-0.3-0.7-0.6-1
		c-0.3-0.3-0.5-0.6-0.8-0.8c-0.3-0.2-0.6-0.4-1-0.5c-0.3-0.1-0.7-0.1-1.1-0.1c-0.4,0.1-0.7,0.2-1.1,0.5c-0.5,0.3-0.8,0.7-0.9,1.2
		c-0.1,0.5-0.1,1,0.2,1.6c0.1,0.2,0.2,0.4,0.3,0.5c0.1,0.2,0.3,0.4,0.4,0.5L85.4,7.5z"/>
</g>
</svg>
